# xmcd
#
# Track frame offsets:
#	150
#	20676
#	45204
#	69598
#	80325
#	100878
#	123404
#	145401
#	170867
#	192623
#	209491
#	230474
#
# Disc length: 3384 seconds
# Revision: 1
# Processed by: cddbd v1.5.2PL0 Copyright (c) Steve Scherf et al.
# Submitted via: dBpowerAMP V12.0
#
DISCID=ae0d360c
DTITLE=Alice Stuart with Prune Rooney and Friends - Crazy with the Blues
DYEAR=2000
DGENRE=Blues
TTITLE0=Statesboro Blues
TTITLE1=Wondering
TTITLE2=Downhearted Blues
TTITLE3=I Don't Want You Hangin' Round
TTITLE4=Let the Mystery Be
TTITLE5=One Too Many Mornings
TTITLE6=Moods of a Fool
TTITLE7=I Feel Like Hank Williams Tonight
TTITLE8=Weeping Willow Blues
TTITLE9=In My Girlish Days
TTITLE10=Goin' Crazy With the Blues
TTITLE11=(I'm Goin' to) New York City
EXTD=
EXTT0=
EXTT1=
EXTT2=
EXTT3=
EXTT4=
EXTT5=
EXTT6=
EXTT7=
EXTT8=
EXTT9=
EXTT10=
EXTT11=
PLAYORDER=
